mtllib materials.mtl
v 0.11 0.03499985 0
v 0.09526283 -0.0150001 -0.05500001
v 0.11 -0.0150001 0
v 0.06000006 0.02499986 -0.09000003
v 0.05500007 -0.0150001 -0.09526283
v 5.960464E-08 0.02499986 -0.11
v 5.960464E-08 -0.0150001 -0.11
v -0.05499995 -0.0150001 -0.09526283
v -0.05999994 0.02499986 -0.09000003
v -0.09526277 -0.0150001 -0.05500007
v -0.1038018 0.03205323 0.001627564
v -0.11 -0.0150001 0
v -0.09526277 -0.0150001 0.05500001
v -0.05999994 0.03499985 0.08999997
v -0.05499995 -0.0150001 0.09526277
v 5.960464E-08 0.03499985 0.11
v 0 -0.0150001 0.11
v 0.05500001 -0.0150001 0.09526283
v 0.09000003 0.03499985 0.06
v 0.09526289 -0.0150001 0.05500001
v 0.05000007 0.03499985 0.08999997
v 0.04455 0.05499995 0.0771628
v 0.07716286 0.05499995 0.04454994
v 0.0831899 -0.03500009 -0.04802978
v 0.09605944 -0.03500009 0
v 0 0.05499995 0.08909988
v -0.04454994 0.05499995 0.07716274
v -0.08999991 0.03499985 0.05000001
v -0.07716274 0.05499995 0.04454994
v -0.08909988 0.05499995 -5.960464E-08
v -0.08999991 0.02499986 -0.05000001
v -0.07716274 0.05499995 -0.04455
v -0.04454988 0.05499995 -0.0771628
v 1.192093E-07 0.05499995 -0.08909988
v 0.04455006 0.05499995 -0.07716274
v 0.07716286 0.05499995 -0.04454994
v 0.0891 0.05499995 0
v 0.03608555 0.05500007 0.06250191
v 0.06250197 0.05500007 0.03608549
v 5.960464E-08 0.05500007 0.07217097
v -0.03608549 0.05500007 0.06250191
v -0.06250191 0.05500007 0.03608549
v -0.07217097 0.05500007 0
v -0.06250185 0.05500007 -0.03608555
v -0.03608543 0.05500007 -0.06250197
v 5.960464E-08 0.05500007 -0.07217103
v 0.03608555 0.05500007 -0.06250191
v 0.06250197 0.05500007 -0.03608549
v 0.07217103 0.05500007 0
v 0.04322678 0.0250001 0.07487106
v 0.07487106 0.0250001 0.04322678
v 0.04802966 -0.03500009 -0.08319002
v -1.192093E-07 -0.03500009 -0.09605962
v -0.04802996 -0.03500009 -0.08319008
v -0.0831902 -0.03500009 -0.04802984
v -0.0960598 -0.03500009 0
v -0.0831902 -0.03500009 0.04802984
v -0.04802996 -0.03500009 0.08319002
v -1.788139E-07 -0.03500009 0.09605962
v 0.0480296 -0.03500009 0.08319002
v 0.0831899 -0.03500009 0.04802978
v 0.06738383 -0.04500008 -0.03890413
v 0.07780814 -0.04500008 0
v 0.09048587 0.03023827 -0.04956895
v 0.03890395 -0.04500008 -0.06738394
v -1.192093E-07 -0.04500008 -0.07780826
v -0.03890431 -0.04500008 -0.06738394
v -0.06738406 -0.04500008 -0.03890419
v -0.07780844 -0.04500008 0
v -0.06738412 -0.04500008 0.03890413
v -0.03890431 -0.04500008 0.06738389
v -1.788139E-07 -0.04500008 0.07780826
v 0.03890395 -0.04500008 0.06738394
v 0.06738377 -0.04500008 0.03890413
v 0.04421043 -0.05500007 -0.02552503
v 0.05104977 -0.05500007 -5.960464E-08
v 0.0255248 -0.05500007 -0.04421061
v -1.788139E-07 -0.05500007 -0.05105001
v -0.02552521 -0.05500007 -0.04421061
v -0.04421079 -0.05500007 -0.02552503
v -0.05105019 -0.05500007 -5.960464E-08
v -0.04421079 -0.05500007 0.02552497
v -0.02552521 -0.05500007 0.04421055
v -2.384186E-07 -0.05500007 0.05104995
v 0.02552474 -0.05500007 0.04421055
v 0.04421037 -0.05500007 0.02552497
v 0 0.0250001 0.08645362
v -0.04322684 0.0250001 0.07487106
v -0.07487106 0.0250001 0.04322684
v -0.08645368 0.0250001 -5.960464E-08
v -0.07487106 0.0250001 -0.04322684
v -0.04322684 0.0250001 -0.07487106
v 0 0.0250001 -0.08645368
v 0.04322684 0.0250001 -0.07487106
v 0.07487106 0.0250001 -0.04322684
v 0.08645368 0.0250001 5.960464E-08
v 0.04754961 -0.004999876 0.08235818
v 0.0823583 -0.004999876 0.04754949
v 1.192093E-07 -0.004999876 0.09509897
v -0.04754937 -0.004999876 0.08235818
v -0.082358 -0.004999876 0.04754949
v -0.09509885 -0.004999876 -5.960464E-08
v -0.082358 -0.004999876 -0.04754955
v -0.04754937 -0.004999876 -0.08235818
v 1.192093E-07 -0.004999876 -0.09509903
v 0.04754966 -0.004999876 -0.08235812
v 0.0823583 -0.004999876 -0.04754949
v 0.09509915 -0.004999876 5.960464E-08
v 0.03851521 -0.02499986 0.06671011
v 0.06671023 -0.02499986 0.03851509
v 1.192093E-07 -0.02499986 0.07703018
v -0.03851497 -0.02499986 0.06671011
v -0.06671 -0.02499986 0.03851509
v -0.07703006 -0.02499986 0
v -0.06671 -0.02499986 -0.03851515
v -0.03851497 -0.02499986 -0.06671011
v 1.192093E-07 -0.02499986 -0.07703018
v 0.03851521 -0.02499986 -0.06671005
v 0.06671023 -0.02499986 -0.03851509
v 0.0770303 -0.02499986 5.960464E-08
v 0.02526993 -0.04499984 0.04376853
v 0.0437687 -0.04499984 0.02526975
v 1.788139E-07 -0.04499984 0.05053949
v -0.02526957 -0.04499984 0.04376847
v -0.04376829 -0.04499984 0.02526975
v -0.05053931 -0.04499984 0
v -0.04376829 -0.04499984 -0.02526975
v -0.02526957 -0.04499984 -0.04376847
v 1.788139E-07 -0.04499984 -0.05053949
v 0.02526993 -0.04499984 -0.04376847
v 0.0437687 -0.04499984 -0.02526975
v 0.05053967 -0.04499984 5.960464E-08
vn 0.2588187 7.811823E-07 0.9659259
vn 0.7070989 0.004645897 0.7070994
vn 0.9659258 1.605204E-06 0.2588193
vn 0.965926 1.398044E-06 -0.2588187
vn 0.7070992 0.0046459 -0.7070991
vn 0.2564515 0.1349446 -0.9570907
vn -0.2570274 0.1174662 -0.9592385
vn -0.7110192 0.00452292 -0.7031581
vn -0.9659259 1.475318E-06 -0.2588193
vn -0.9659258 1.345412E-06 0.2588189
vn -0.7031578 0.004523298 0.7110195
vn -0.258819 1.123808E-06 0.9659259
vn -0.5938039 0.5429499 0.5938033
vn 0.2146931 -0.5584914 0.8012455
vn -0.6798126 0.7104045 0.1821549
vn -0.7469465 0.6340452 -0.2001438
vn -0.5938035 0.5429501 -0.5938035
vn -0.2182699 0.5373935 -0.8145959
vn 0.235104 0.4181643 -0.8774194
vn 0.58833 0.5547398 -0.5883294
vn 0.8475677 0.4796378 -0.2271044
vn 0.8013746 0.5582926 0.2147278
vn 0.58833 0.5547396 0.5883296
vn 0.1821554 0.7104034 0.6798136
vn -0.2001441 0.6340442 0.7469473
vn -5.154903E-06 1 5.014967E-06
vn -7.04172E-06 1 1.805833E-06
vn -7.041713E-06 1 -2.010613E-06
vn -5.154892E-06 1 -5.142261E-06
vn -1.886817E-06 1 -6.843363E-06
vn 1.886817E-06 1 -7.134703E-06
vn 5.154884E-06 1 -4.953199E-06
vn 7.041719E-06 1 -1.836708E-06
vn 7.041723E-06 1 1.76364E-06
vn 5.154913E-06 1 5.0188E-06
vn 1.88683E-06 1 7.46084E-06
vn -1.88683E-06 1 7.258237E-06
vn 0.6424327 -0.4178044 -0.6424327
vn 0.5865525 -0.558491 0.5865526
vn 0.8012472 -0.5584886 0.2146935
vn 0.8012492 -0.5584856 -0.2146941
vn 0.5865564 -0.5584832 -0.5865561
vn 0.2146945 -0.5584815 -0.8012519
vn -0.2146951 -0.5584812 -0.801252
vn -0.5865567 -0.5584825 -0.5865567
vn -0.8012498 -0.5584847 -0.2146942
vn -0.8012477 -0.558488 0.2146936
vn -0.5865532 -0.5584897 0.5865532
vn -0.2146928 -0.5584909 0.8012459
vn 0.1276975 -0.8698109 0.4765736
vn 0.3743728 0.1417106 0.9163859
vn 0.6074989 0.1551924 0.7790124
vn 0.5678861 0.4762997 0.6713002
vn 0.358706 0.4976288 0.789744
vn -0.2245734 0.7040365 0.6737205
vn -0.315494 0.06807386 0.9464827
vn -0.5648056 0.7082046 0.4236045
vn -0.9201461 0.1336568 0.3680585
vn -0.7918095 0.1427284 0.5938571
vn -0.7616546 0.5718946 0.3046618
vn -0.67372 0.7040371 -0.2245732
vn -0.9464827 0.06807336 -0.3154941
vn -0.4236041 0.7082052 -0.5648053
vn -0.2649819 0.127106 -0.9558393
vn -0.5938571 0.1427284 -0.7918095
vn -0.1939366 0.5667903 -0.8007106
vn 0.2867091 0.5023229 -0.8157632
vn 0.5904837 0.1773972 -0.7873114
vn 0.2752078 0.1591453 -0.9481211
vn 0.5468813 0.4113691 -0.729175
vn 0.9452514 0.08498151 0.3150838
vn 0.824618 0.4944191 0.2748727
vn 0.7914456 0.5513757 -0.2638154
vn 0.9452514 0.0849815 -0.3150842
vn 0.3488762 -0.869811 0.3488757
vn 0.4765737 -0.8698108 0.1276976
vn 0.4765738 -0.8698108 -0.1276976
vn 0.3488761 -0.8698108 -0.3488761
vn 0.1276975 -0.8698107 -0.4765738
vn -0.1276976 -0.8698107 -0.4765738
vn -0.3488762 -0.8698109 -0.3488756
vn -0.4765733 -0.869811 -0.1276976
vn -0.4765735 -0.8698109 0.1276975
vn -0.3488758 -0.8698111 0.3488758
vn -0.1276975 -0.8698114 0.4765728
vn 0.09339046 -0.9326304 0.3485381
vn 0.2551481 -0.9326301 0.255148
vn 0.3485388 -0.9326301 0.0933906
vn 0.348539 -0.9326301 -0.09339043
vn 0.2551483 -0.93263 -0.2551484
vn 0.0933909 -0.93263 -0.348539
vn -0.09339087 -0.9326299 -0.3485391
vn -0.2551483 -0.9326301 -0.255148
vn -0.3485387 -0.9326302 -0.09339072
vn -0.3485382 -0.9326304 0.09339022
vn -0.2551477 -0.9326303 0.2551477
vn -0.09339058 -0.9326304 0.3485378
vn 0 -1 0
vn 0.8775791 -0.417805 -0.2351464
vn 0.8775787 -0.4178059 0.2351464
vn 0.6424323 -0.4178063 0.6424317
vn 0.2351463 -0.4178065 0.8775785
vn -0.2351466 -0.4178066 0.8775783
vn -0.6424319 -0.4178061 0.6424323
vn -0.8775789 -0.4178055 0.2351464
vn -0.877579 -0.4178049 -0.2351469
vn -0.6424331 -0.4178042 -0.6424324
vn -0.2351469 -0.4178042 -0.8775794
vn 0.2351472 -0.4178045 -0.8775792
vn 0.6812072 -0.2681677 -0.6812069
vn 0.9305467 -0.2681655 -0.2493392
vn 0.9305475 -0.2681632 0.2493391
vn 0.6812086 -0.2681614 0.6812081
vn 0.2493395 -0.26816 0.9305483
vn -0.2493398 -0.2681598 0.9305482
vn -0.6812085 -0.2681608 0.6812084
vn -0.9305475 -0.2681626 0.2493395
vn -0.9305467 -0.268165 -0.2493397
vn -0.6812075 -0.2681674 -0.6812068
vn -0.2493393 -0.2681687 -0.9305457
vn 0.2493396 -0.2681689 -0.9305457
vn 0.53277 0.6575045 -0.53277
vn 0.7277776 0.6575043 -0.1950074
vn 0.7277778 0.6575041 0.1950074
vn 0.5327705 0.6575041 0.53277
vn 0.1950072 0.6575041 0.7277778
vn -0.1950076 0.6575043 0.7277775
vn -0.5327701 0.6575043 0.5327702
vn -0.7277774 0.6575044 0.1950075
vn -0.7277771 0.6575049 -0.1950077
vn -0.5327702 0.6575049 -0.5327693
vn -0.1950072 0.6575049 -0.7277771
vn 0.1950076 0.6575051 -0.7277768
vn 0.4354528 0.7878842 -0.4354529
vn 0.5948393 0.7878847 -0.1593867
vn 0.5948385 0.7878852 0.1593867
vn 0.4354517 0.7878857 0.4354515
vn 0.1593858 0.7878859 0.5948377
vn -0.1593863 0.787886 0.5948375
vn -0.4354515 0.7878857 0.4354515
vn -0.5948384 0.7878852 0.1593868
vn -0.5948389 0.7878847 -0.1593871
vn -0.4354531 0.7878844 -0.4354525
vn -0.1593866 0.7878844 -0.5948397
vn 0.1593871 0.7878841 -0.5948398
vn 0 1 0
usemtl mat18
f 3//1 2//1 1//1
f 2//2 5//2 4//2
f 5//3 7//3 6//3
f 7//4 8//4 6//4
f 8//5 10//5 9//5
f 10//6 12//6 11//6
f 12//7 13//7 11//7
f 13//8 15//8 14//8
f 15//9 17//9 16//9
f 17//10 18//10 16//10
f 18//11 20//11 19//11
f 20//12 3//12 1//12
f 23//13 22//13 21//13
f 25//14 24//14 2//14 3//14
f 22//15 26//15 16//15
f 26//16 27//16 14//16
f 27//17 29//17 28//17
f 29//18 30//18 11//18
f 30//19 32//19 31//19
f 32//20 33//20 9//20
f 33//21 34//21 9//21
f 34//22 35//22 6//22
f 35//23 36//23 4//23
f 36//24 37//24 1//24
f 37//25 23//25 19//25
f 39//26 38//26 22//26 23//26
f 38//27 40//27 26//27 22//27
f 40//28 41//28 27//28 26//28
f 41//29 42//29 29//29 27//29
f 42//30 43//30 30//30 29//30
f 43//31 44//31 32//31 30//31
f 44//32 45//32 33//32 32//32
f 45//33 46//33 34//33 33//33
f 46//34 47//34 35//34 34//34
f 47//35 48//35 36//35 35//35
f 48//36 49//36 37//36 36//36
f 49//37 39//37 23//37 37//37
f 51//38 50//38 38//38 39//38
f 24//39 52//39 5//39 2//39
f 52//40 53//40 7//40 5//40
f 53//41 54//41 8//41 7//41
f 54//42 55//42 10//42 8//42
f 55//43 56//43 12//43 10//43
f 56//44 57//44 13//44 12//44
f 57//45 58//45 15//45 13//45
f 58//46 59//46 17//46 15//46
f 59//47 60//47 18//47 17//47
f 60//48 61//48 20//48 18//48
f 61//49 25//49 3//49 20//49
f 63//50 62//50 24//50 25//50
f 2//51 64//51 1//51
f 4//52 64//52 2//52
f 36//53 64//53 4//53
f 1//54 64//54 36//54
f 19//55 1//55 37//55
f 1//56 19//56 20//56
f 21//57 19//57 23//57
f 18//58 21//58 16//58
f 19//59 21//59 18//59
f 16//60 21//60 22//60
f 14//61 16//61 26//61
f 16//62 14//62 15//62
f 28//63 14//63 27//63
f 13//64 28//64 11//64
f 14//65 28//65 13//65
f 11//66 28//66 29//66
f 31//67 11//67 30//67
f 10//68 31//68 9//68
f 11//69 31//69 10//69
f 9//70 31//70 32//70
f 6//71 4//71 5//71
f 35//72 4//72 6//72
f 34//73 6//73 9//73
f 8//74 9//74 6//74
f 62//75 65//75 52//75 24//75
f 65//76 66//76 53//76 52//76
f 66//77 67//77 54//77 53//77
f 67//78 68//78 55//78 54//78
f 68//79 69//79 56//79 55//79
f 69//80 70//80 57//80 56//80
f 70//81 71//81 58//81 57//81
f 71//82 72//82 59//82 58//82
f 72//83 73//83 60//83 59//83
f 73//84 74//84 61//84 60//84
f 74//85 63//85 25//85 61//85
f 76//86 75//86 62//86 63//86
f 75//87 77//87 65//87 62//87
f 77//88 78//88 66//88 65//88
f 78//89 79//89 67//89 66//89
f 79//90 80//90 68//90 67//90
f 80//91 81//91 69//91 68//91
f 81//92 82//92 70//92 69//92
f 82//93 83//93 71//93 70//93
f 83//94 84//94 72//94 71//94
f 84//95 85//95 73//95 72//95
f 85//96 86//96 74//96 73//96
f 86//97 76//97 63//97 74//97
f 86//98 85//98 84//98 83//98 82//98 81//98 80//98 79//98 78//98 77//98 75//98 76//98
f 50//99 87//99 40//99 38//99
f 87//100 88//100 41//100 40//100
f 88//101 89//101 42//101 41//101
f 89//102 90//102 43//102 42//102
f 90//103 91//103 44//103 43//103
f 91//104 92//104 45//104 44//104
f 92//105 93//105 46//105 45//105
f 93//106 94//106 47//106 46//106
f 94//107 95//107 48//107 47//107
f 95//108 96//108 49//108 48//108
f 96//109 51//109 39//109 49//109
f 98//110 97//110 50//110 51//110
f 97//111 99//111 87//111 50//111
f 99//112 100//112 88//112 87//112
f 100//113 101//113 89//113 88//113
f 101//114 102//114 90//114 89//114
f 102//115 103//115 91//115 90//115
f 103//116 104//116 92//116 91//116
f 104//117 105//117 93//117 92//117
f 105//118 106//118 94//118 93//118
f 106//119 107//119 95//119 94//119
f 107//120 108//120 96//120 95//120
f 108//121 98//121 51//121 96//121
f 110//122 109//122 97//122 98//122
f 109//123 111//123 99//123 97//123
f 111//124 112//124 100//124 99//124
f 112//125 113//125 101//125 100//125
f 113//126 114//126 102//126 101//126
f 114//127 115//127 103//127 102//127
f 115//128 116//128 104//128 103//128
f 116//129 117//129 105//129 104//129
f 117//130 118//130 106//130 105//130
f 118//131 119//131 107//131 106//131
f 119//132 120//132 108//132 107//132
f 120//133 110//133 98//133 108//133
f 122//134 121//134 109//134 110//134
f 121//135 123//135 111//135 109//135
f 123//136 124//136 112//136 111//136
f 124//137 125//137 113//137 112//137
f 125//138 126//138 114//138 113//138
f 126//139 127//139 115//139 114//139
f 127//140 128//140 116//140 115//140
f 128//141 129//141 117//141 116//141
f 129//142 130//142 118//142 117//142
f 130//143 131//143 119//143 118//143
f 131//144 132//144 120//144 119//144
f 132//145 122//145 110//145 120//145
f 132//146 131//146 130//146 129//146 128//146 127//146 126//146 125//146 124//146 123//146 121//146 122//146
